<?xml version="1.0" standalone="no"?>
<!DOCTYPE svg PUBLIC "-//W3C//DTD SVG 20010904//EN"
 "http://www.w3.org/TR/2001/REC-SVG-20010904/DTD/svg10.dtd">
<svg version="1.0" xmlns="http://www.w3.org/2000/svg"
 width="512.000000pt" height="512.000000pt" viewBox="0 0 512.000000 512.000000"
 preserveAspectRatio="xMidYMid meet">
<metadata>
Created by potrace 1.14, written by Peter Selinger 2001-2017
</metadata>
<g transform="translate(0.000000,512.000000) scale(0.100000,-0.100000)"
fill="#000000" stroke="none">
<path d="M500 5097 c-28 -15 -51 -36 -64 -62 l-21 -40 0 -2270 c0 -2144 1
-2272 18 -2305 9 -19 34 -46 54 -60 32 -22 49 -25 145 -28 59 -2 108 -7 109
-10 0 -4 2 -53 3 -109 2 -93 5 -105 30 -142 54 -77 -92 -71 1787 -71 1800 0
1708 -2 1765 47 52 46 49 -56 50 1751 l1 1684 155 156 c161 162 179 185 173
218 -2 10 -4 22 -4 26 -1 8 -151 158 -160 159 -3 0 -15 2 -25 4 -27 5 -68 -18
-105 -60 -17 -20 -31 -32 -32 -28 0 4 -1 168 -2 363 l-2 355 -25 38 c-14 21
-44 46 -68 58 -44 22 -46 22 -187 3 l-50 -6 -1 119 c0 134 -10 161 -72 203
l-36 25 -1696 3 -1696 2 -44 -23z"/>
</g>
</svg>
